<svg clip-rule="evenodd" fill-rule="evenodd" viewBox="0 0 256 256" xmlns="http://www.w3.org/2000/svg" xmlns:xlink="http://www.w3.org/1999/xlink"><linearGradient id="a"><stop offset="0" stop-color="#ff8c42"/><stop offset=".5" stop-color="#f97316"/><stop offset="1" stop-color="#ea580c"/></linearGradient><linearGradient id="b" gradientTransform="matrix(22.923077 75.882353 -75.882353 22.923077 33.076923 105)" gradientUnits="userSpaceOnUse" x1="0" x2="1" xlink:href="#a" y1="0" y2="0"/><linearGradient id="c" gradientTransform="matrix(24.358974 78.882353 -78.882353 24.358974 48.333333 112)" gradientUnits="userSpaceOnUse" x1="0" x2="1" xlink:href="#a" y1="0" y2="0"/><linearGradient id="d" gradientTransform="matrix(21 81.578947 -81.578947 21 69.666667 116)" gradientUnits="userSpaceOnUse" x1="0" x2="1" xlink:href="#a" y1="0" y2="0"/><linearGradient id="e" gradientTransform="matrix(18.666667 81 -81 18.666667 89.333333 118)" gradientUnits="userSpaceOnUse" x1="0" x2="1" xlink:href="#a" y1="0" y2="0"/><linearGradient id="f" gradientTransform="matrix(18.666667 81 -81 18.666667 92 118)" gradientUnits="userSpaceOnUse" x1="0" x2="1" xlink:href="#a" y1="0" y2="0"/><linearGradient id="g" gradientTransform="matrix(21 81.578947 -81.578947 21 109.333333 116)" gradientUnits="userSpaceOnUse" x1="0" x2="1" xlink:href="#a" y1="0" y2="0"/><linearGradient id="h" gradientTransform="matrix(24.358974 78.882353 -78.882353 24.358974 127.307692 112)" gradientUnits="userSpaceOnUse" x1="0" x2="1" xlink:href="#a" y1="0" y2="0"/><linearGradient id="i" gradientTransform="matrix(22.923077 75.882353 -75.882353 22.923077 144 105)" gradientUnits="userSpaceOnUse" x1="0" x2="1" xlink:href="#a" y1="0" y2="0"/><linearGradient id="j" gradientTransform="matrix(110 100 -100 110 45 20)" gradientUnits="userSpaceOnUse" x1="0" x2="1" xlink:href="#a" y1="0" y2="0"/><linearGradient id="k" gradientTransform="matrix(0 10 -10 0 92 197)" gradientUnits="userSpaceOnUse" x1="0" x2="1" y1="0" y2="0"><stop offset="0" stop-color="#1e293b" stop-opacity=".9"/><stop offset="1" stop-color="#0f172a" stop-opacity=".9"/></linearGradient><linearGradient id="l" gradientTransform="matrix(0 6 -6 0 89 193)" gradientUnits="userSpaceOnUse" x1="0" x2="1" y1="0" y2="0"><stop offset="0" stop-color="#1e293b" stop-opacity=".7"/><stop offset="1" stop-color="#0f172a" stop-opacity=".7"/></linearGradient><linearGradient id="m" gradientTransform="matrix(0 5 -5 0 105.5 191.5)" gradientUnits="userSpaceOnUse" x1="0" x2="1" y1="0" y2="0"><stop offset="0" stop-color="#1e293b" stop-opacity=".6"/><stop offset="1" stop-color="#0f172a" stop-opacity=".6"/></linearGradient><linearGradient id="n" gradientTransform="matrix(0 4 -4 0 94 186)" gradientUnits="userSpaceOnUse" x1="0" x2="1" y1="0" y2="0"><stop offset="0" stop-color="#1e293b" stop-opacity=".5"/><stop offset="1" stop-color="#0f172a" stop-opacity=".5"/></linearGradient><linearGradient id="o" gradientTransform="matrix(0 3 -3 0 102.5 184.5)" gradientUnits="userSpaceOnUse" x1="0" x2="1" y1="0" y2="0"><stop offset="0" stop-color="#1e293b" stop-opacity=".4"/><stop offset="1" stop-color="#0f172a" stop-opacity=".4"/></linearGradient><linearGradient id="p" gradientTransform="matrix(0 50 -50 0 45 8)" gradientUnits="userSpaceOnUse" x1="0" x2="1" y1="0" y2="0"><stop offset="0" stop-color="#64748b"/><stop offset="1" stop-color="#475569"/></linearGradient><linearGradient id="q"><stop offset="0" stop-color="#94a3b8"/><stop offset="1" stop-color="#64748b"/></linearGradient><linearGradient id="r" gradientTransform="matrix(30 40 -40 30 28 48)" gradientUnits="userSpaceOnUse" x1="0" x2="1" xlink:href="#q" y1="0" y2="0"/><linearGradient id="s" gradientTransform="matrix(30 40 -40 30 142 48)" gradientUnits="userSpaceOnUse" x1="0" x2="1" xlink:href="#q" y1="0" y2="0"/><g stroke="#c2410c"><path d="m52 105c-8 10-13.667 21.667-17 35s-2.333 25 3 35c4.667 6.667 8 7.667 10 3 1.333-6.667 1.333-14.333 0-23 0-13.333 2.333-25.667 7-37 2-5.333 1-9.667-3-13" fill="url(#b)" fill-rule="nonzero" stroke-width="1.5" transform="matrix(.97393743018 .47221966402 -.47221966402 .97393743018 74.71034594706 -15.61804590274)"/><path d="m65 112c-6.667 12-11.667 24.667-15 38-3.333 16.667-1.667 29.333 5 38 6.667 4.667 11 3.667 13-3 1.333-8.667 1.333-18.667 0-30 0-13.333 1.333-25 4-35 2-4-.333-6.667-7-8" fill="url(#c)" fill-rule="nonzero" stroke-width="1.5" transform="matrix(1.07286371504 .14321619208 -.14321619208 1.07286371504 27.22143649518 -8.63399544702)"/><path d="m80 116c-5.333 16-8.667 30.667-10 44-1.333 14.667 1.333 26.333 8 35 6.667 4.667 10.667 3 12-5 1.333-10 .667-20.667-2-32-1.333-13.333-2.333-24.333-3-33 .667-4.667-1-7.667-5-9" fill="url(#d)" fill-rule="nonzero" stroke-width="1.5" transform="matrix(1.08238 0 0 1.08238 7.07295552516 4.90868466446)"/><path d="m92 118c-2.667 18-3.333 34.667-2 50 1.333 13.333 4.667 23.333 10 30 5.333 2.667 8 0 8-8-1.333-12-3.333-23.667-6-35-2.667-13.333-4.667-23.333-6-30-.667-3.333-2-5.667-4-7" fill="url(#e)" fill-rule="nonzero" stroke-width="1.5" transform="matrix(1.08238 0 0 1.08238 10.57474706776 4.6555408772)"/><path d="m108 118c2.667 18 3.333 34.667 2 50-1.333 13.333-4.667 23.333-10 30-5.333 2.667-8 0-8-8 1.333-12 3.333-23.667 6-35 2.667-13.333 4.667-23.333 6-30 .667-3.333 2-5.667 4-7" fill="url(#f)" fill-rule="nonzero" stroke-width="1.5" transform="matrix(1.08238 0 0 1.08238 17.18768297526 5.20146845446)"/><path d="m120 116c5.333 16 8.667 30.667 10 44 1.333 14.667-1.333 26.333-8 35-6.667 4.667-10.667 3-12-5-1.333-10-.667-20.667 2-32 1.333-13.333 2.333-24.333 3-33-.667-4.667 1-7.667 5-9" fill="url(#g)" fill-rule="nonzero" stroke-width="1.5" transform="matrix(1.0712206622 -.15502279312 .15502279312 1.0712206622 -.87036719412 25.56148003026)"/><path d="m135 112c6.667 12 11.667 24.667 15 38 3.333 16.667 1.667 29.333-5 38-6.667 4.667-11 3.667-13-3-1.333-8.667-1.333-18.667 0-30 0-13.333-1.333-25-4-35-2-4 .333-6.667 7-8" fill="url(#h)" fill-rule="nonzero" stroke-width="1.5" transform="matrix(1.05520035582 -.24103736696 .24103736696 1.05520035582 -9.03946788712 40.28002638472)"/><path d="m148 105c8 10 13.667 21.667 17 35s2.333 25-3 35c-4.667 6.667-8 7.667-10 3-1.333-6.667-1.333-14.333 0-23 0-13.333-2.333-25.667-7-37-2-5.333-1-9.667 3-13" fill="url(#i)" fill-rule="nonzero" stroke-width="1.5" transform="matrix(1.01676179488 -.37113511344 .37113511344 1.01676179488 -19.64684059422 63.12905952568)"/><ellipse cx="100" cy="70" fill="url(#j)" rx="55" ry="50" stroke-width="2" transform="matrix(1.08238 0 0 1.08238 15.470512 12.298291)"/></g><circle cx="91.237112" cy="75.076331" fill="#ea580c" fill-opacity=".4" r="5.4119" stroke-width="1.08238"/><circle cx="154.015152" cy="71.829191" fill="#ea580c" fill-opacity=".4" r="4.32952" stroke-width="1.08238"/><circle cx="107.472812" cy="107.547731" fill="#ea580c" fill-opacity=".4" r="3.24714" stroke-width="1.08238"/><circle cx="143.191352" cy="104.300591" fill="#ea580c" fill-opacity=".4" r="3.24714" stroke-width="1.08238"/><ellipse cx="100" cy="202" fill="url(#k)" rx="8" ry="5" transform="matrix(2.07828108514 0 0 1.91004026746 -136.1478983655 -164.4210906388)"/><circle cx="92" cy="196" fill="url(#l)" r="3" transform="matrix(1.08238 0 0 1.08238 -38.91832208686 -2.21290490024)"/><circle cx="108" cy="194" fill="url(#m)" r="2.5" transform="matrix(1.08238 0 0 1.08238 -35.79798398624 .07662861902)"/><circle cx="96" cy="188" fill="url(#n)" r="2" transform="matrix(1.08238 0 0 1.08238 -36.17433184176 1.51202469126)"/><circle cx="104" cy="186" fill="url(#o)" r="1.5" transform="matrix(1.08238 0 0 1.08238 -38.5196577205 6.44410671964)"/><path d="m45 58c0-28.667 18.333-45.333 55-50 36.667 4.667 55 21.333 55 50" fill="none" stroke="url(#p)" stroke-linecap="round" stroke-width="10" transform="matrix(1.08238 0 0 1.08238 15.470512 12.298291)"/><ellipse cx="43" cy="68" fill="url(#r)" rx="15" ry="20" stroke="#475569" stroke-width="1.5" transform="matrix(1.08238 0 0 1.08238 15.470512 12.298291)"/><ellipse cx="62.012852" cy="85.900131" fill="#334155" rx="10.8238" ry="15.15332" stroke-width="1.08238"/><ellipse cx="157" cy="68" fill="url(#s)" rx="15" ry="20" stroke="#475569" stroke-width="1.5" transform="matrix(1.08238 0 0 1.08238 15.470512 12.298291)"/><ellipse cx="185.404172" cy="85.900131" fill="#334155" rx="10.8238" ry="15.15332" stroke-width="1.08238"/><ellipse cx="99.896152" cy="88.064891" fill="#fff" rx="12.98856" ry="15.15332" stroke="#c2410c" stroke-width="1.08238"/><ellipse cx="147.520872" cy="88.064891" fill="#fff" rx="12.98856" ry="15.15332" stroke="#c2410c" stroke-width="1.08238"/><circle cx="102.060912" cy="90.229651" fill="#1e293b" r="6.49428" stroke-width="1.08238"/><circle cx="149.685632" cy="90.229651" fill="#1e293b" r="6.49428" stroke-width="1.08238"/><circle cx="100.12033779274" cy="91.9369106216" fill="#fff" r="2.70595" stroke-width="1.08238"/><circle cx="147.39305591056" cy="91.58896658204" fill="#fff" r="2.70595" stroke-width="1.08238"/><path d="m90 92c6.667 5.333 13.333 5.333 20 0" fill="none" stroke="#c2410c" stroke-linecap="round" stroke-width="2.5" transform="matrix(1.08238 0 0 1.08238 15.470512 12.298291)"/><path d="m172 45c4 0 6-2.333 6-7s-2-7-6-7" fill="none" stroke="#f97316" stroke-linecap="round" stroke-width="2" transform="matrix(1.08238 0 0 1.08238 15.470512 12.298291)"/><path d="m176 50c6.667 0 10-4 10-12s-3.333-12-10-12" fill="none" stroke="#f97316" stroke-linecap="round" stroke-width="2" transform="matrix(1.08238 0 0 1.08238 15.470512 12.298291)"/><path d="m180 55c8 0 12-5.667 12-17s-4-17-12-17" fill="none" stroke="#f97316" stroke-linecap="round" stroke-width="2" transform="matrix(1.08238 0 0 1.08238 15.470512 12.298291)"/></svg>